<svg width="536" height="141" viewBox="0 0 536 141" fill="none" xmlns="http://www.w3.org/2000/svg">
<path d="M98.5943 9.12536H85.0128C80.8222 9.12536 77.4248 12.5268 77.4248 16.7229V30.3212C77.4248 34.5173 80.8222 37.9189 85.0128 37.9189H98.5943C102.785 37.9189 106.183 34.5173 106.183 30.3212V16.7229C106.183 12.5268 102.785 9.12536 98.5943 9.12536Z" fill="#BF2626"/>
<path d="M45.4081 38.7294H57.3344C62.2694 39.0102 66.964 40.9569 70.6521 44.2522L71.0994 44.7499C74.4076 48.4317 76.3545 53.1384 76.6151 58.0842V69.9755C76.6151 72.0471 77.4372 74.0341 78.9003 75.499C80.3634 76.9639 82.3479 77.787 84.4171 77.787H98.3808C100.45 77.787 102.434 76.9639 103.897 75.499C105.361 74.0341 106.183 72.0471 106.183 69.9755V55.9945C106.183 53.9226 105.361 51.9359 103.897 50.471C102.434 49.006 100.45 48.183 98.3808 48.183H86.5041C81.5646 47.9218 76.8638 45.9725 73.1863 42.6601L72.6895 42.2123C69.3916 38.5238 67.4463 33.8212 67.1735 28.878V16.9368C67.1735 14.8652 66.3517 12.8783 64.8886 11.4133C63.4253 9.94841 61.441 9.12536 59.3718 9.12536H45.4081C43.3388 9.12536 41.3546 9.94841 39.8915 11.4133C38.4283 12.8783 37.6063 14.8652 37.6063 16.9368V30.9181C37.6063 32.9897 38.4283 34.9765 39.8915 36.4414C41.3546 37.9063 43.3388 38.7294 45.4081 38.7294Z" fill="#BF2626"/>
<path d="M100.617 87.6807H88.8029C83.8851 87.3611 79.2255 85.3183 75.6104 81.8969L74.2813 80.5392C71.0043 76.8173 69.0755 72.0597 68.8173 67.0605V54.9902C68.8043 52.9003 67.986 50.8995 66.5395 49.4215C65.0928 47.9435 63.1346 47.1074 61.0888 47.0944H49.2747C44.3974 46.8846 39.7393 44.9667 36.0824 41.6628L34.7533 40.3048C31.476 36.5831 29.5475 31.8256 29.2891 26.8263V14.8066C29.2891 12.7124 28.4748 10.7039 27.0257 9.22304C25.5763 7.74238 23.6106 6.91047 21.5608 6.91047H7.72832C5.67877 6.91047 3.71285 7.74238 2.26368 9.22304C0.814288 10.7039 0 12.7124 0 14.8066V28.9387C0 31.0329 0.814288 33.0413 2.26368 34.522C3.71285 36.0028 5.67877 36.8348 7.72832 36.8348H19.4933C24.4611 37.0669 29.1951 39.0583 32.8827 42.4674L34.2118 43.8254C37.4787 47.5537 39.4057 52.3073 39.6758 57.3037V69.3742C39.6886 71.4641 40.5071 73.4649 41.9536 74.9426C43.4001 76.4206 45.3585 77.2568 47.4041 77.27H59.2182C64.0573 77.5795 68.6528 79.5461 72.2632 82.8525L73.5922 84.2104C76.8591 87.9387 78.7861 92.6925 79.0562 97.6889V109.759C79.0691 111.849 79.8876 113.85 81.3341 115.328C82.7806 116.806 84.739 117.642 86.7845 117.655H100.666C102.712 117.642 104.67 116.806 106.117 115.328C107.563 113.85 108.382 111.849 108.395 109.759V95.5766C108.382 93.478 107.557 91.4695 106.099 89.9902C104.642 88.5108 102.671 87.6805 100.617 87.6807Z" fill="#BF2626"/>
<path d="M22.798 86.6466H8.17185C3.65865 86.6466 0 90.0482 0 94.2443V107.843C0 112.039 3.65865 115.44 8.17185 115.44H22.798C27.3113 115.44 30.9699 112.039 30.9699 107.843V94.2443C30.9699 90.0482 27.3113 86.6466 22.798 86.6466Z" fill="#BF2626"/>
<path d="M60.7745 85.8359H48.8977C43.9582 85.5748 39.2575 83.6257 35.58 80.3133L35.0832 79.8654C31.7643 76.1509 29.8176 71.4094 29.5672 66.4317V54.4905C29.5426 52.4785 28.7436 50.5536 27.3365 49.1168C25.9293 47.6802 24.0227 46.8425 22.0138 46.7785H7.80176C5.73253 46.7785 3.74824 47.6016 2.28513 49.0665C0.822024 50.5314 0 52.5182 0 54.59V68.5711C0 70.6429 0.822024 72.6296 2.28513 74.0948C3.74824 75.5597 5.73253 76.3825 7.80176 76.3825H19.7281C24.6631 76.6634 29.3577 78.61 33.0458 81.9054L33.4931 82.4028C36.8013 86.0849 38.7482 90.7915 39.0088 95.7371V107.628C39.0088 108.659 39.2123 109.678 39.6074 110.629C40.0027 111.58 40.5819 112.444 41.3116 113.17C42.0412 113.896 42.9073 114.47 43.8596 114.86C44.8119 115.249 45.8317 115.447 46.8604 115.44H60.7745C62.8435 115.44 64.828 114.617 66.2911 113.152C67.7542 111.687 68.5762 109.7 68.5762 107.628V93.6474C68.5762 91.5758 67.7542 89.5888 66.2911 88.1239C64.828 86.659 62.8435 85.8359 60.7745 85.8359Z" fill="#BF2626"/>
<path d="M195.641 106.581H182.634V72.1612H151.443V106.581H138.303V26.3129L149.85 14.7512H195.641V106.581ZM190.863 26.3129H151.443V70.5664L161.397 60.5994H182.634V34.5523L190.863 26.3129Z" fill="#BF2626"/>
<path d="M244.757 106.581H231.75L220.335 95.0189V13.0236L233.475 0V95.0189H244.757V106.581Z" fill="#BF2626"/>
<path d="M306.651 37.6089L295.236 49.1706H267.363V95.0189H288.6V60.5994H301.74V129.571L290.325 141H252.631L263.912 129.571H288.6V96.4807L275.46 106.581H265.771L254.223 95.0189V49.1706L265.771 37.6089H306.651Z" fill="#BF2626"/>
<path d="M367.623 95.0189L356.208 106.581H331.654L320.239 95.0189V49.1706L331.654 37.6089H356.208L367.623 49.1706V95.0189ZM354.616 95.0189V49.1706H333.379V95.0189H354.616Z" fill="#BF2626"/>
<path d="M444.173 77.0782L422.538 106.581H407.805L386.834 77.0782V14.7512H400.24V74.6861L413.778 95.4175H417.229L431.033 74.6861V14.7512H444.173V77.0782Z" fill="#0DA68A"/>
<path d="M477.934 26.3129H464.793V13.1565H477.934V26.3129ZM477.934 106.581H464.793V47.7088L477.934 34.4194V106.581Z" fill="#0DA68A"/>
<path d="M536 106.581H494.987V84.7861L524.585 55.0179V49.1706H494.987V37.6089H536V60.2008L506.932 89.3044V95.0189H536V106.581Z" fill="#0DA68A"/>
</svg>
